<mxfile host="app.diagrams.net" agent="Mozilla/5.0 (X11; Ubuntu; Linux x86_64; rv:130.0) Gecko/20100101 Firefox/130.0" version="25.0.0">
  <diagram name="Page-1" id="sakXDZ38qYOXhQlav3KR">
    <mxGraphModel dx="941" dy="528" grid="1" gridSize="10" guides="1" tooltips="1" connect="1" arrows="1" fold="1" page="1" pageScale="1" pageWidth="850" pageHeight="1100" math="0" shadow="0">
      <root>
        <mxCell id="0" />
        <mxCell id="1" parent="0" />
        <mxCell id="ofFHBMjptxu8NDV-v7J2-40" value="" style="group" parent="1" vertex="1" connectable="0">
          <mxGeometry x="110" y="65" width="730" height="530" as="geometry" />
        </mxCell>
        <mxCell id="-uF0R0lQCtl9wBR931qS-4" value="" style="group" parent="ofFHBMjptxu8NDV-v7J2-40" vertex="1" connectable="0">
          <mxGeometry y="30" width="280" height="340" as="geometry" />
        </mxCell>
        <mxCell id="aa0cj-yEIOZvdle40va2-20" value="Offre" style="rhombus;whiteSpace=wrap;html=1;" parent="-uF0R0lQCtl9wBR931qS-4" vertex="1">
          <mxGeometry x="150" y="185" width="60" height="60" as="geometry" />
        </mxCell>
        <mxCell id="-uF0R0lQCtl9wBR931qS-5" value="" style="group" parent="-uF0R0lQCtl9wBR931qS-4" vertex="1" connectable="0">
          <mxGeometry x="100" y="-24" width="160" height="180" as="geometry" />
        </mxCell>
        <mxCell id="-uF0R0lQCtl9wBR931qS-1" value="" style="rounded=1;whiteSpace=wrap;html=1;" parent="-uF0R0lQCtl9wBR931qS-5" vertex="1">
          <mxGeometry x="5" y="-17" width="150" height="150" as="geometry" />
        </mxCell>
        <mxCell id="-uF0R0lQCtl9wBR931qS-3" value="&lt;div align=&quot;center&quot;&gt;&lt;font size=&quot;3&quot;&gt;mail{pk}&lt;/font&gt;&lt;/div&gt;&lt;div align=&quot;center&quot;&gt;&lt;font size=&quot;3&quot;&gt;nom&lt;/font&gt;&lt;/div&gt;&lt;div align=&quot;center&quot;&gt;&lt;font size=&quot;3&quot;&gt;prénom&lt;/font&gt;&lt;/div&gt;&lt;div align=&quot;center&quot;&gt;&lt;font size=&quot;3&quot;&gt;adresse postale&lt;br&gt;&lt;/font&gt;&lt;/div&gt;" style="text;html=1;align=center;verticalAlign=middle;whiteSpace=wrap;rounded=0;" parent="-uF0R0lQCtl9wBR931qS-5" vertex="1">
          <mxGeometry x="12.49" y="23.269999999999996" width="135.01" height="101.47" as="geometry" />
        </mxCell>
        <mxCell id="-uF0R0lQCtl9wBR931qS-2" value="&lt;div&gt;&lt;u&gt;&lt;font style=&quot;font-size: 18px;&quot;&gt;Utilisateur&lt;/font&gt;&lt;/u&gt;&lt;/div&gt;" style="text;html=1;align=center;verticalAlign=middle;whiteSpace=wrap;rounded=0;" parent="-uF0R0lQCtl9wBR931qS-5" vertex="1">
          <mxGeometry x="14.37" y="-26" width="131.25" height="70" as="geometry" />
        </mxCell>
        <mxCell id="aa0cj-yEIOZvdle40va2-23" value="" style="endArrow=classic;html=1;rounded=0;entryX=0.5;entryY=0;entryDx=0;entryDy=0;exitX=0.5;exitY=1;exitDx=0;exitDy=0;" parent="-uF0R0lQCtl9wBR931qS-4" source="-uF0R0lQCtl9wBR931qS-1" target="aa0cj-yEIOZvdle40va2-20" edge="1">
          <mxGeometry width="50" height="50" relative="1" as="geometry">
            <mxPoint x="61" y="31" as="sourcePoint" />
            <mxPoint x="101" y="261" as="targetPoint" />
          </mxGeometry>
        </mxCell>
        <mxCell id="ZCG3vBXyKOke6vrB0kK--3" value="" style="endArrow=open;endSize=12;dashed=1;html=1;rounded=0;entryX=0.5;entryY=0;entryDx=0;entryDy=0;" edge="1" parent="-uF0R0lQCtl9wBR931qS-4" target="aa0cj-yEIOZvdle40va2-27">
          <mxGeometry width="160" relative="1" as="geometry">
            <mxPoint x="180" y="245" as="sourcePoint" />
            <mxPoint x="190" y="335" as="targetPoint" />
          </mxGeometry>
        </mxCell>
        <mxCell id="UowVVviBaSJEIdX8Itdu-26" value="" style="group" parent="ofFHBMjptxu8NDV-v7J2-40" vertex="1" connectable="0">
          <mxGeometry x="388" y="365" width="150" height="168" as="geometry" />
        </mxCell>
        <mxCell id="UowVVviBaSJEIdX8Itdu-1" value="" style="rounded=1;whiteSpace=wrap;html=1;" parent="UowVVviBaSJEIdX8Itdu-26" vertex="1">
          <mxGeometry width="150" height="168" as="geometry" />
        </mxCell>
        <mxCell id="UowVVviBaSJEIdX8Itdu-2" value="&lt;div&gt;&lt;u&gt;&lt;font style=&quot;font-size: 18px;&quot;&gt;Produit&lt;/font&gt;&lt;/u&gt;&lt;/div&gt;" style="text;html=1;align=center;verticalAlign=middle;whiteSpace=wrap;rounded=0;" parent="UowVVviBaSJEIdX8Itdu-26" vertex="1">
          <mxGeometry x="45" y="11.858823529411765" width="60" height="29.647058823529406" as="geometry" />
        </mxCell>
        <mxCell id="UowVVviBaSJEIdX8Itdu-4" value="&lt;div&gt;&lt;font size=&quot;3&quot;&gt;idProduit{pk}&lt;/font&gt;&lt;/div&gt;&lt;div align=&quot;center&quot;&gt;&lt;font size=&quot;3&quot;&gt;Nom&lt;/font&gt;&lt;/div&gt;&lt;div align=&quot;center&quot;&gt;&lt;font size=&quot;3&quot;&gt;prixRevient&lt;/font&gt;&lt;/div&gt;&lt;div align=&quot;center&quot;&gt;&lt;font size=&quot;3&quot;&gt;Stock&lt;/font&gt;&lt;/div&gt;&lt;div align=&quot;center&quot;&gt;&lt;font size=&quot;3&quot;&gt;Categorie&lt;br&gt;&lt;/font&gt;&lt;/div&gt;&lt;div align=&quot;center&quot;&gt;&lt;font size=&quot;3&quot;&gt;Disponible&lt;br&gt;&lt;/font&gt;&lt;/div&gt;&lt;div align=&quot;center&quot;&gt;&lt;font size=&quot;3&quot;&gt;&lt;br&gt;&lt;/font&gt;&lt;/div&gt;" style="text;html=1;align=center;verticalAlign=middle;whiteSpace=wrap;rounded=0;" parent="UowVVviBaSJEIdX8Itdu-26" vertex="1">
          <mxGeometry x="10" y="56.00366013071895" width="130" height="98.82352941176471" as="geometry" />
        </mxCell>
        <mxCell id="ofFHBMjptxu8NDV-v7J2-43" value="Appartient à -&amp;gt;" style="text;html=1;align=center;verticalAlign=middle;whiteSpace=wrap;rounded=0;rotation=30;" parent="ofFHBMjptxu8NDV-v7J2-40" vertex="1">
          <mxGeometry x="528" y="260" width="110" height="30" as="geometry" />
        </mxCell>
        <mxCell id="aa0cj-yEIOZvdle40va2-15" value="1...1" style="text;html=1;align=center;verticalAlign=middle;whiteSpace=wrap;rounded=0;" parent="ofFHBMjptxu8NDV-v7J2-40" vertex="1">
          <mxGeometry x="450" y="321" width="60" height="30" as="geometry" />
        </mxCell>
        <mxCell id="aa0cj-yEIOZvdle40va2-27" value="&lt;div&gt;&lt;font style=&quot;font-size: 18px;&quot;&gt;Qté&lt;/font&gt;&lt;/div&gt;&lt;font size=&quot;3&quot;&gt;Prix&lt;/font&gt;" style="rounded=1;whiteSpace=wrap;html=1;" parent="ofFHBMjptxu8NDV-v7J2-40" vertex="1">
          <mxGeometry x="121" y="365" width="120" height="50" as="geometry" />
        </mxCell>
        <mxCell id="ofFHBMjptxu8NDV-v7J2-37" value="1...1" style="text;html=1;align=center;verticalAlign=middle;whiteSpace=wrap;rounded=0;" parent="ofFHBMjptxu8NDV-v7J2-40" vertex="1">
          <mxGeometry x="420" y="536" width="60" height="30" as="geometry" />
        </mxCell>
        <mxCell id="ofFHBMjptxu8NDV-v7J2-4" value="" style="group" parent="1" vertex="1" connectable="0">
          <mxGeometry x="704" y="402" width="180" height="200" as="geometry" />
        </mxCell>
        <mxCell id="UowVVviBaSJEIdX8Itdu-27" value="" style="rounded=1;whiteSpace=wrap;html=1;" parent="ofFHBMjptxu8NDV-v7J2-4" vertex="1">
          <mxGeometry width="180" height="200" as="geometry" />
        </mxCell>
        <mxCell id="ofFHBMjptxu8NDV-v7J2-1" style="edgeStyle=orthogonalEdgeStyle;rounded=0;orthogonalLoop=1;jettySize=auto;html=1;exitX=0.5;exitY=1;exitDx=0;exitDy=0;" parent="ofFHBMjptxu8NDV-v7J2-4" source="UowVVviBaSJEIdX8Itdu-27" target="UowVVviBaSJEIdX8Itdu-27" edge="1">
          <mxGeometry relative="1" as="geometry" />
        </mxCell>
        <mxCell id="ofFHBMjptxu8NDV-v7J2-2" value="&lt;font style=&quot;font-size: 18px;&quot;&gt;Salle de Vente&lt;br&gt;&lt;/font&gt;" style="text;html=1;align=center;verticalAlign=middle;whiteSpace=wrap;rounded=0;fontStyle=4" parent="ofFHBMjptxu8NDV-v7J2-4" vertex="1">
          <mxGeometry x="20" y="14.646464646464645" width="140" height="21.96969696969697" as="geometry" />
        </mxCell>
        <mxCell id="ofFHBMjptxu8NDV-v7J2-3" value="&lt;div&gt;&lt;font size=&quot;3&quot;&gt;idSalle{pk}&lt;br&gt;&lt;/font&gt;&lt;/div&gt;&lt;div&gt;&lt;font size=&quot;3&quot;&gt;Catégorie&lt;br&gt;&lt;/font&gt;&lt;/div&gt;&lt;div&gt;&lt;font size=&quot;3&quot;&gt;Durée&lt;/font&gt;&lt;/div&gt;&lt;div&gt;&lt;font size=&quot;3&quot;&gt;Croissance&lt;/font&gt;&lt;/div&gt;&lt;div&gt;&lt;font size=&quot;3&quot;&gt;Revocable&lt;br&gt;&lt;/font&gt;&lt;/div&gt;" style="text;html=1;align=center;verticalAlign=middle;whiteSpace=wrap;rounded=0;" parent="ofFHBMjptxu8NDV-v7J2-4" vertex="1">
          <mxGeometry x="10" y="49.99818181818182" width="160" height="136.1090909090909" as="geometry" />
        </mxCell>
        <mxCell id="ofFHBMjptxu8NDV-v7J2-6" value="" style="endArrow=classic;startArrow=classic;html=1;rounded=0;entryX=0.5;entryY=1;entryDx=0;entryDy=0;exitX=0.5;exitY=0;exitDx=0;exitDy=0;" parent="1" source="UowVVviBaSJEIdX8Itdu-27" target="-uF0R0lQCtl9wBR931qS-9" edge="1">
          <mxGeometry width="50" height="50" relative="1" as="geometry">
            <mxPoint x="349" y="817" as="sourcePoint" />
            <mxPoint x="399" y="767" as="targetPoint" />
          </mxGeometry>
        </mxCell>
        <mxCell id="-uF0R0lQCtl9wBR931qS-8" value="" style="group" parent="1" vertex="1" connectable="0">
          <mxGeometry x="449" y="77" width="238.13" height="320" as="geometry" />
        </mxCell>
        <mxCell id="-uF0R0lQCtl9wBR931qS-9" value="" style="rounded=1;whiteSpace=wrap;html=1;" parent="-uF0R0lQCtl9wBR931qS-8" vertex="1">
          <mxGeometry x="7.89" y="20" width="178.13" height="180" as="geometry" />
        </mxCell>
        <mxCell id="-uF0R0lQCtl9wBR931qS-10" value="&lt;div&gt;&lt;font size=&quot;3&quot;&gt;idVente{pk}&lt;/font&gt;&lt;/div&gt;&lt;div&gt;&lt;font size=&quot;3&quot;&gt;idProduit&lt;br&gt;&lt;/font&gt;&lt;/div&gt;&lt;div&gt;&lt;font size=&quot;3&quot;&gt;prixDepart&lt;br&gt;&lt;/font&gt;&lt;/div&gt;&lt;div&gt;&lt;font size=&quot;3&quot;&gt;Salle&lt;br&gt;&lt;/font&gt;&lt;/div&gt;&lt;div&gt;&lt;font size=&quot;3&quot;&gt;Date Début &lt;br&gt;&lt;/font&gt;&lt;/div&gt;&lt;div&gt;&lt;font size=&quot;3&quot;&gt;Date Limite&lt;br&gt;&lt;/font&gt;&lt;/div&gt;&lt;div&gt;&lt;font size=&quot;3&quot;&gt;&lt;br&gt;&lt;/font&gt;&lt;/div&gt;" style="text;html=1;align=center;verticalAlign=middle;whiteSpace=wrap;rounded=0;" parent="-uF0R0lQCtl9wBR931qS-8" vertex="1">
          <mxGeometry x="31.400000000000002" y="78" width="131.11" height="110" as="geometry" />
        </mxCell>
        <mxCell id="-uF0R0lQCtl9wBR931qS-11" value="&lt;div&gt;&lt;font style=&quot;font-size: 18px;&quot;&gt;&lt;u&gt;Vente&lt;/u&gt;&lt;/font&gt;&lt;/div&gt;" style="text;html=1;align=center;verticalAlign=middle;whiteSpace=wrap;rounded=0;" parent="-uF0R0lQCtl9wBR931qS-8" vertex="1">
          <mxGeometry x="19.03" y="31" width="155.86" height="40" as="geometry" />
        </mxCell>
        <mxCell id="ofFHBMjptxu8NDV-v7J2-38" value="0...*" style="text;html=1;align=center;verticalAlign=middle;whiteSpace=wrap;rounded=0;" parent="-uF0R0lQCtl9wBR931qS-8" vertex="1">
          <mxGeometry x="129.51" y="202" width="60" height="30" as="geometry" />
        </mxCell>
        <mxCell id="ofFHBMjptxu8NDV-v7J2-35" value="1...1" style="text;html=1;align=center;verticalAlign=middle;whiteSpace=wrap;rounded=0;" parent="-uF0R0lQCtl9wBR931qS-8" vertex="1">
          <mxGeometry x="52.28" y="207.00000000000003" width="60" height="30" as="geometry" />
        </mxCell>
        <mxCell id="ofFHBMjptxu8NDV-v7J2-42" value="&amp;lt;- Appartient à " style="text;html=1;align=center;verticalAlign=middle;whiteSpace=wrap;rounded=0;rotation=-100;" parent="-uF0R0lQCtl9wBR931qS-8" vertex="1">
          <mxGeometry x="46" y="261" width="105.39" height="30" as="geometry" />
        </mxCell>
        <mxCell id="UowVVviBaSJEIdX8Itdu-21" value="" style="endArrow=classic;startArrow=classic;html=1;rounded=0;exitX=0.5;exitY=0;exitDx=0;exitDy=0;entryX=0.5;entryY=1;entryDx=0;entryDy=0;" parent="1" source="UowVVviBaSJEIdX8Itdu-1" target="-uF0R0lQCtl9wBR931qS-9" edge="1">
          <mxGeometry width="50" height="50" relative="1" as="geometry">
            <mxPoint x="349" y="777" as="sourcePoint" />
            <mxPoint x="538" y="537" as="targetPoint" />
          </mxGeometry>
        </mxCell>
        <mxCell id="ofFHBMjptxu8NDV-v7J2-96" value="&lt;div&gt;&lt;font size=&quot;3&quot;&gt;prixRevient &amp;gt;=0&lt;br&gt;&lt;/font&gt;&lt;/div&gt;&lt;div&gt;&lt;font size=&quot;3&quot;&gt;Stock &amp;gt;= 0&lt;/font&gt;&lt;/div&gt;&lt;div&gt;&lt;font size=&quot;3&quot;&gt;prixOffre &amp;gt;= 0&lt;/font&gt;&lt;/div&gt;&lt;div&gt;&lt;font size=&quot;3&quot;&gt;Qté &amp;lt;= Stock&lt;br&gt;&lt;/font&gt;&lt;/div&gt;&lt;div&gt;&lt;font size=&quot;3&quot;&gt;Qté &amp;gt;= 0&lt;br&gt;&lt;/font&gt;&lt;/div&gt;&lt;div&gt;&lt;font size=&quot;3&quot;&gt;prixDépart &amp;gt;= 0&lt;/font&gt;&lt;/div&gt;" style="rounded=1;whiteSpace=wrap;html=1;" parent="1" vertex="1">
          <mxGeometry x="191" y="549" width="200" height="161" as="geometry" />
        </mxCell>
        <mxCell id="ofFHBMjptxu8NDV-v7J2-97" value="" style="rounded=1;whiteSpace=wrap;html=1;" parent="1" vertex="1">
          <mxGeometry x="687.13" y="680" width="200" height="110" as="geometry" />
        </mxCell>
        <mxCell id="ofFHBMjptxu8NDV-v7J2-98" value="&lt;u&gt;&lt;font size=&quot;3&quot;&gt;Caractéristique&lt;/font&gt;&lt;/u&gt;" style="text;html=1;align=center;verticalAlign=middle;whiteSpace=wrap;rounded=0;" parent="1" vertex="1">
          <mxGeometry x="743.38" y="695" width="87.5" height="30" as="geometry" />
        </mxCell>
        <mxCell id="ofFHBMjptxu8NDV-v7J2-102" value="" style="endArrow=classic;html=1;rounded=0;exitX=0.5;exitY=1;exitDx=0;exitDy=0;entryX=0;entryY=0.5;entryDx=0;entryDy=0;" parent="1" source="UowVVviBaSJEIdX8Itdu-1" target="ofFHBMjptxu8NDV-v7J2-97" edge="1">
          <mxGeometry width="50" height="50" relative="1" as="geometry">
            <mxPoint x="1032.75" y="247" as="sourcePoint" />
            <mxPoint x="1085" y="420" as="targetPoint" />
          </mxGeometry>
        </mxCell>
        <mxCell id="ofFHBMjptxu8NDV-v7J2-39" value="1...1" style="text;html=1;align=center;verticalAlign=middle;resizable=0;points=[];autosize=1;strokeColor=none;fillColor=none;" parent="1" vertex="1">
          <mxGeometry x="706" y="373" width="50" height="30" as="geometry" />
        </mxCell>
        <mxCell id="aa0cj-yEIOZvdle40va2-5" value="&lt;div&gt;&lt;font size=&quot;3&quot;&gt;nomCaractéristiques{pk}&lt;br&gt;&lt;/font&gt;&lt;/div&gt;&lt;div&gt;&lt;font size=&quot;3&quot;&gt;IdProduit {pk}&lt;br&gt;&lt;/font&gt;&lt;/div&gt;&lt;div&gt;&lt;font size=&quot;3&quot;&gt;valeurCaracté&lt;/font&gt;&lt;/div&gt;" style="text;html=1;align=center;verticalAlign=middle;whiteSpace=wrap;rounded=0;" parent="1" vertex="1">
          <mxGeometry x="707.13" y="707.5" width="160" height="85" as="geometry" />
        </mxCell>
        <mxCell id="aa0cj-yEIOZvdle40va2-7" value="0...*" style="text;html=1;align=center;verticalAlign=middle;whiteSpace=wrap;rounded=0;" parent="1" vertex="1">
          <mxGeometry x="636.1299999999999" y="720" width="60" height="30" as="geometry" />
        </mxCell>
        <mxCell id="aa0cj-yEIOZvdle40va2-17" value="&lt;div&gt;&lt;font style=&quot;font-size: 14px;&quot;&gt;&lt;br&gt;&lt;/font&gt;&lt;/div&gt;&lt;div&gt;&lt;font size=&quot;3&quot;&gt;&lt;br&gt;&lt;/font&gt;&lt;/div&gt;&lt;div&gt;&lt;font size=&quot;3&quot;&gt;Date{pk}&lt;/font&gt;&lt;/div&gt;" style="rounded=1;whiteSpace=wrap;html=1;" parent="1" vertex="1">
          <mxGeometry x="62" y="157" width="120" height="70" as="geometry" />
        </mxCell>
        <mxCell id="aa0cj-yEIOZvdle40va2-2" value="&lt;u&gt;&lt;font style=&quot;font-size: 18px;&quot;&gt;Date&lt;/font&gt;&lt;/u&gt;" style="text;html=1;align=center;verticalAlign=middle;whiteSpace=wrap;rounded=0;" parent="1" vertex="1">
          <mxGeometry x="92" y="162" width="60" height="30" as="geometry" />
        </mxCell>
        <mxCell id="aa0cj-yEIOZvdle40va2-22" value="" style="endArrow=classic;html=1;rounded=0;entryX=0;entryY=0.5;entryDx=0;entryDy=0;exitX=0.5;exitY=1;exitDx=0;exitDy=0;" parent="1" target="aa0cj-yEIOZvdle40va2-20" edge="1" source="aa0cj-yEIOZvdle40va2-17">
          <mxGeometry width="50" height="50" relative="1" as="geometry">
            <mxPoint x="122" y="223" as="sourcePoint" />
            <mxPoint x="571" y="405" as="targetPoint" />
          </mxGeometry>
        </mxCell>
        <mxCell id="aa0cj-yEIOZvdle40va2-25" value="" style="endArrow=classic;html=1;rounded=0;entryX=1;entryY=0.5;entryDx=0;entryDy=0;exitX=0;exitY=0.5;exitDx=0;exitDy=0;" parent="1" source="-uF0R0lQCtl9wBR931qS-9" target="aa0cj-yEIOZvdle40va2-20" edge="1">
          <mxGeometry width="50" height="50" relative="1" as="geometry">
            <mxPoint x="520" y="490" as="sourcePoint" />
            <mxPoint x="570" y="440" as="targetPoint" />
          </mxGeometry>
        </mxCell>
        <mxCell id="SA3MfMmKfuJ9t50d1_-G-1" value="a des caractéristiques&amp;gt;" style="text;html=1;align=center;verticalAlign=middle;whiteSpace=wrap;rounded=0;rotation=50;" parent="1" vertex="1">
          <mxGeometry x="565" y="652" width="150" height="30" as="geometry" />
        </mxCell>
      </root>
    </mxGraphModel>
  </diagram>
</mxfile>
